<svg width="16" height="16" viewBox="0 0 16 16" fill="none" xmlns="http://www.w3.org/2000/svg">
<path d="M3.57123 15.9643H0.249801V5.28571H3.57123V15.9643ZM1.89266 3.85714C0.856944 3.85714 -0.000198606 2.96429 -0.000198606 1.89286C-0.000198606 0.857143 0.856944 0 1.89266 0C2.96409 0 3.82123 0.857143 3.82123 1.89286C3.82123 2.96429 2.96409 3.85714 1.89266 3.85714ZM15.9641 15.9643H12.6784V10.7857C12.6784 9.53571 12.6427 7.96429 10.9284 7.96429C9.21409 7.96429 8.96409 9.28571 8.96409 10.6786V15.9643H5.64266V5.28571H8.82123V6.75H8.85694C9.32123 5.92857 10.3927 5.03571 11.9998 5.03571C15.3569 5.03571 15.9998 7.25 15.9998 10.1071V15.9643H15.9641Z" fill="white"/>
</svg>
