<svg width="18" height="18" viewBox="0 0 18 18" fill="none" xmlns="http://www.w3.org/2000/svg">
<path d="M17.3672 5.80078C17.7539 6.11719 18 6.57422 18 7.10156V16.3125C18 17.2617 17.2266 18 16.3125 18H1.6875C0.738281 18 0 17.2617 0 16.3125V7.10156C0 6.57422 0.210938 6.11719 0.597656 5.80078C0.738281 5.69531 4.5 2.67188 5.34375 1.96875C6.15234 1.33594 7.45312 0 9 0C10.5117 0 11.8477 1.37109 12.6211 1.96875C13.4297 2.63672 17.1914 5.66016 17.3672 5.80078ZM16.3125 16.1016V7.20703C16.3125 7.13672 16.2773 7.06641 16.207 7.03125C15.6445 6.57422 12.375 3.97266 11.5664 3.30469C10.9336 2.8125 9.80859 1.6875 9 1.6875C8.15625 1.6875 7.03125 2.77734 6.39844 3.30469C5.58984 3.97266 2.32031 6.57422 1.75781 7.03125C1.6875 7.06641 1.6875 7.13672 1.6875 7.20703V16.1016C1.6875 16.2422 1.75781 16.3125 1.89844 16.3125H16.1016C16.207 16.3125 16.3125 16.2422 16.3125 16.1016ZM15.1875 9.52734C15.3281 9.70312 15.293 9.98438 15.1172 10.125C14.0977 10.9336 13.0078 11.7773 12.6211 12.1289C11.8125 12.7617 10.5117 14.0625 9 14.0625C7.45312 14.0625 6.11719 12.7266 5.34375 12.1289C4.95703 11.8125 3.86719 10.9336 2.84766 10.125C2.67188 9.98438 2.63672 9.70312 2.77734 9.52734L3.33984 8.85938C3.48047 8.68359 3.72656 8.64844 3.9375 8.82422C4.92188 9.63281 5.97656 10.4766 6.39844 10.793C7.03125 11.2852 8.15625 12.375 9 12.375C9.80859 12.375 10.9336 11.3203 11.5664 10.793C11.9883 10.4766 13.043 9.63281 14.0273 8.82422C14.2383 8.64844 14.4844 8.68359 14.625 8.85938L15.1875 9.52734Z" fill="#0EDE8F"/>
</svg>
