<svg width="16" height="16" viewBox="0 0 16 16" fill="none" xmlns="http://www.w3.org/2000/svg">
<path d="M8.01762 3.88419C10.2626 3.88419 12.1156 5.73719 12.1156 7.98218C12.1156 10.2628 10.2626 12.0802 8.01762 12.0802C5.737 12.0802 3.91962 10.2628 3.91962 7.98218C3.91962 5.73719 5.737 3.88419 8.01762 3.88419ZM8.01762 10.6548C9.47864 10.6548 10.6546 9.47884 10.6546 7.98218C10.6546 6.52116 9.47864 5.34521 8.01762 5.34521C6.52096 5.34521 5.34501 6.52116 5.34501 7.98218C5.34501 9.47884 6.55659 10.6548 8.01762 10.6548ZM13.2203 3.74165C13.2203 4.27617 12.7927 4.70379 12.2582 4.70379C11.7236 4.70379 11.296 4.27617 11.296 3.74165C11.296 3.20713 11.7236 2.77951 12.2582 2.77951C12.7927 2.77951 13.2203 3.20713 13.2203 3.74165ZM15.9285 4.70379C15.9998 6.02227 15.9998 9.97773 15.9285 11.2962C15.8573 12.5791 15.5722 13.6837 14.6457 14.6459C13.7192 15.5724 12.5789 15.8575 11.296 15.9287C9.97753 16 6.02207 16 4.70359 15.9287C3.42074 15.8575 2.31606 15.5724 1.35392 14.6459C0.427419 13.6837 0.142341 12.5791 0.0710713 11.2962C-0.000198164 9.97773 -0.000198164 6.02227 0.0710713 4.70379C0.142341 3.42094 0.427419 2.28062 1.35392 1.35412C2.31606 0.427617 3.42074 0.142539 4.70359 0.0712695C6.02207 0 9.97753 0 11.296 0.0712695C12.5789 0.142539 13.7192 0.427617 14.6457 1.35412C15.5722 2.28062 15.8573 3.42094 15.9285 4.70379ZM14.2181 12.686C14.6457 11.6526 14.5388 9.15813 14.5388 7.98218C14.5388 6.84187 14.6457 4.34744 14.2181 3.2784C13.933 2.60134 13.3985 2.03118 12.7214 1.78174C11.6524 1.35412 9.15793 1.46102 8.01762 1.46102C6.84167 1.46102 4.34724 1.35412 3.31383 1.78174C2.60114 2.06682 2.06662 2.60134 1.78154 3.2784C1.35392 4.34744 1.46083 6.84187 1.46083 7.98218C1.46083 9.15813 1.35392 11.6526 1.78154 12.686C2.06662 13.3987 2.60114 13.9332 3.31383 14.2183C4.34724 14.6459 6.84167 14.539 8.01762 14.539C9.15793 14.539 11.6524 14.6459 12.7214 14.2183C13.3985 13.9332 13.9686 13.3987 14.2181 12.686Z" fill="white"/>
</svg>
