<svg width="12" height="18" viewBox="0 0 12 18" fill="none" xmlns="http://www.w3.org/2000/svg">
<path d="M6.92022 16.9051C6.71572 17.2686 6.40897 17.4504 5.99998 17.4504C5.59099 17.4504 5.28424 17.2686 5.07975 16.9051L0.75124 8.9979C0.228638 8.04359 -0.0213017 7.03815 0.00142011 5.98158C0.0241419 4.92502 0.296804 3.93094 0.819406 2.99934C1.36473 2.06775 2.08047 1.34065 2.96662 0.818047C3.85277 0.295445 4.81845 0.0227842 5.86365 6.19451e-05C5.95454 6.19451e-05 6.04543 6.19451e-05 6.13631 6.19451e-05C6.81797 0.0227842 7.4769 0.153434 8.11311 0.392014C8.74932 0.630593 9.32873 0.971421 9.85133 1.4145C10.3739 1.85757 10.817 2.38585 11.1806 2.99934C11.7032 3.93094 11.9758 4.92502 11.9985 5.98158C12.0213 7.03815 11.7713 8.04359 11.2487 8.9979L6.92022 16.9051ZM6.10223 1.09071C6.07951 1.09071 6.04543 1.09071 5.99998 1.09071C5.95454 1.09071 5.92046 1.09071 5.89773 1.09071C5.0343 1.11343 4.23904 1.34065 3.51194 1.77236C2.78484 2.20408 2.20544 2.79485 1.77372 3.54467C1.34201 4.31721 1.12047 5.13519 1.10911 5.99862C1.09775 6.86205 1.29656 7.68004 1.70556 8.45258L5.99998 16.3257L10.2944 8.45258C10.7034 7.68004 10.9022 6.86205 10.8909 5.99862C10.8795 5.13519 10.658 4.31721 10.2262 3.54467C9.79453 2.79485 9.21512 2.20408 8.48802 1.77236C7.76092 1.34065 6.96566 1.11343 6.10223 1.09071ZM7.7382 7.19152C7.7382 7.19152 7.61891 7.31081 7.38033 7.54939C7.14175 7.78797 6.68164 7.90726 5.99998 7.90726C5.31833 7.90726 4.73892 7.66868 4.26176 7.19152C3.7846 6.71436 3.54602 6.13496 3.54602 5.4533C3.54602 4.77164 3.7846 4.19224 4.26176 3.71508C4.73892 3.23792 5.31833 2.99934 5.99998 2.99934C6.68164 2.99934 7.26104 3.23792 7.7382 3.71508C8.21536 4.19224 8.45394 4.77164 8.45394 5.4533C8.45394 6.13496 8.21536 6.71436 7.7382 7.19152ZM6.97134 4.48194C6.97134 4.48194 6.90601 4.41662 6.77536 4.28597C6.64471 4.15532 6.38625 4.08999 5.99998 4.08999C5.61371 4.08999 5.28993 4.22064 5.02862 4.48194C4.76732 4.74324 4.63667 5.06703 4.63667 5.4533C4.63667 5.83957 4.76732 6.16336 5.02862 6.42466C5.28993 6.68596 5.61371 6.81661 5.99998 6.81661C6.38625 6.81661 6.71004 6.68596 6.97134 6.42466C7.23264 6.16336 7.36329 5.83957 7.36329 5.4533C7.36329 5.06703 7.23264 4.74324 6.97134 4.48194Z" fill="#0EDE8F"/>
</svg>
